<?xml version="1.0" standalone="no"?>
<!DOCTYPE svg PUBLIC "-//W3C//DTD SVG 20010904//EN"
 "http://www.w3.org/TR/2001/REC-SVG-20010904/DTD/svg10.dtd">
<svg version="1.0" xmlns="http://www.w3.org/2000/svg"
 width="260.000000pt" height="260.000000pt" viewBox="0 0 260.000000 260.000000"
 preserveAspectRatio="xMidYMid meet">
<metadata>
Created by potrace 1.11, written by Peter Selinger 2001-2013
</metadata>
<g transform="translate(0.000000,260.000000) scale(0.100000,-0.100000)"
fill="#000000" stroke="none">
<path d="M1255 2394 c-11 -3 -56 -12 -100 -20 -109 -21 -260 -83 -360 -148
-517 -337 -659 -1030 -317 -1549 159 -242 422 -414 717 -470 121 -23 338 -16
450 15 22 6 48 13 57 15 9 1 57 20 107 41 104 45 232 129 313 204 55 51 168
185 168 199 0 13 -422 301 -429 293 -4 -5 -25 -31 -46 -57 -142 -177 -411
-248 -630 -166 -278 104 -426 408 -345 710 55 204 245 376 448 406 199 29 373
-33 517 -185 19 -20 38 -45 41 -54 3 -10 11 -18 17 -18 7 1 53 29 102 65 50
35 143 99 207 142 64 43 117 83 117 90 1 16 -106 149 -160 198 -205 188 -438
283 -714 289 -77 2 -149 2 -160 0z m280 -189 c127 -21 295 -95 403 -179 103
-79 102 -75 25 -129 l-66 -46 -47 39 c-90 75 -230 138 -349 157 -55 9 -179 9
-241 1 -103 -14 -229 -68 -325 -141 -291 -219 -384 -630 -219 -961 82 -164
213 -286 380 -356 242 -101 535 -64 739 94 22 17 42 34 43 38 8 17 35 6 93
-34 l61 -43 -34 -28 c-113 -97 -199 -149 -316 -191 -227 -81 -480 -66 -696 40
-118 59 -208 129 -297 235 -105 123 -163 247 -205 439 -14 63 -10 257 7 336
60 280 240 518 481 640 90 45 208 83 282 90 34 3 63 8 65 9 5 5 170 -3 216
-10z"/>
</g>
</svg>
